{
  "asset": {
    "version": "2.0",
    "generator": "Three.js GLTFExporter"
  },
  "scenes": [
    {
      "nodes": [0],
      "name": "Scene"
    }
  ],
  "nodes": [
    {
      "children": [1],
      "name": "Building"
    },
    {
      "mesh": 0,
      "name": "MainStructure"
    }
  ],
  "meshes": [
    {
      "primitives": [
        {
          "attributes": {
            "POSITION": 0,
            "NORMAL": 1
          },
          "indices": 2,
          "material": 0
        }
      ]
    }
  ],
  "materials": [
    {
      "pbrMetallicRoughness": {
        "baseColorFactor": [0.29, 0.56, 0.89, 1],
        "metallicFactor": 0.5,
        "roughnessFactor": 0.5
      },
      "name": "BuildingMaterial"
    }
  ],
  "accessors": [
    {
      "bufferView": 0,
      "componentType": 5126,
      "count": 24,
      "max": [1, 2, 1],
      "min": [-1, 0, -1],
      "type": "VEC3"
    },
    {
      "bufferView": 1,
      "componentType": 5126,
      "count": 24,
      "type": "VEC3"
    },
    {
      "bufferView": 2,
      "componentType": 5123,
      "count": 36,
      "type": "SCALAR"
    }
  ],
  "bufferViews": [
    {
      "buffer": 0,
      "byteLength": 288,
      "byteOffset": 0
    },
    {
      "buffer": 0,
      "byteLength": 288,
      "byteOffset": 288
    },
    {
      "buffer": 0,
      "byteLength": 72,
      "byteOffset": 576
    }
  ],
  "buffers": [
    {
      "byteLength": 648,
      "uri": "data:application/octet-stream;base64,"
    }
  ]
}